<?xml version="1.0" encoding="utf-8"?>
<svg viewBox="0 0 500 500" xmlns="http://www.w3.org/2000/svg">
  <path d="M 243.038 150.969 C 179.438 150.969 128.138 202.269 128.138 265.869 C 128.138 329.469 179.438 380.769 243.038 380.769 C 306.638 380.769 357.938 329.469 357.938 265.869 C 357.938 202.269 306.638 150.969 243.038 150.969 Z M 243.038 340.569 C 201.938 340.569 168.338 307.069 168.338 265.869 C 168.338 224.669 201.838 191.169 243.038 191.169 C 284.238 191.169 317.738 224.669 317.738 265.869 C 317.738 307.069 284.138 340.569 243.038 340.569 L 243.038 340.569 Z M 389.438 146.269 C 389.438 161.169 377.438 173.069 362.638 173.069 C 347.738 173.069 335.838 161.069 335.838 146.269 C 335.838 131.469 347.838 119.469 362.638 119.469 C 377.438 119.469 389.438 131.469 389.438 146.269 Z M 465.538 173.469 C 463.838 137.569 455.638 105.769 429.338 79.569 C 403.138 53.369 371.338 45.169 335.438 43.369 C 298.438 41.269 187.538 41.269 150.538 43.369 C 114.738 45.069 82.938 53.269 56.638 79.469 C 30.338 105.669 22.238 137.469 20.438 173.369 C 18.338 210.369 18.338 321.269 20.438 358.269 C 22.138 394.169 30.338 425.969 56.638 452.169 C 82.938 478.369 114.638 486.569 150.538 488.369 C 187.538 490.469 298.438 490.469 335.438 488.369 C 371.338 486.669 403.138 478.469 429.338 452.169 C 455.538 425.969 463.738 394.169 465.538 358.269 C 467.638 321.269 467.638 210.469 465.538 173.469 L 465.538 173.469 Z M 417.738 397.969 C 409.938 417.569 394.838 432.669 375.138 440.569 C 345.638 452.269 275.638 449.569 243.038 449.569 C 210.438 449.569 140.338 452.169 110.938 440.569 C 91.338 432.769 76.238 417.669 68.338 397.969 C 56.638 368.469 59.338 298.469 59.338 265.869 C 59.338 233.269 56.738 163.169 68.338 133.769 C 76.138 114.169 91.238 99.069 110.938 91.169 C 140.438 79.469 210.438 82.169 243.038 82.169 C 275.638 82.169 345.738 79.569 375.138 91.169 C 394.738 98.969 409.838 114.069 417.738 133.769 C 429.438 163.269 426.738 233.269 426.738 265.869 C 426.738 298.469 429.438 368.569 417.738 397.969 Z" style="fill: rgb(255, 255, 255);"/>
</svg>