<?xml version="1.0" encoding="utf-8"?>
<svg viewBox="0 0 500 500" xmlns="http://www.w3.org/2000/svg">
  <path d="M 239.15 204.558 C 198.089 204.573 172.442 249.033 192.986 284.585 C 213.53 320.137 264.856 320.118 285.373 284.551 C 290.049 276.446 292.51 267.254 292.51 257.898 C 292.488 228.44 268.607 204.569 239.15 204.558 Z M 363.86 163.558 C 358.371 149.648 347.36 138.637 333.45 133.148 C 312.45 124.858 262.45 126.718 239.15 126.718 C 215.85 126.718 165.9 124.788 144.84 133.148 C 130.93 138.637 119.918 149.648 114.43 163.558 C 106.15 184.558 108 234.608 108 257.888 C 108 281.168 106.15 331.158 114.47 352.228 C 119.958 366.138 130.97 377.149 144.88 382.638 C 165.88 390.928 215.88 389.068 239.19 389.068 C 262.5 389.068 312.43 390.998 333.49 382.638 C 347.4 377.149 358.411 366.138 363.9 352.228 C 372.25 331.228 370.33 281.178 370.33 257.898 C 370.33 234.618 372.25 184.638 363.9 163.568 L 363.86 163.558 Z M 239.15 339.898 C 176.026 339.898 136.574 271.564 168.136 216.898 C 199.697 162.231 278.602 162.231 310.164 216.898 C 317.361 229.363 321.15 243.504 321.15 257.898 C 321.205 303.208 284.46 339.953 239.15 339.898 Z M 324.53 191.598 C 309.796 191.605 300.579 175.66 307.939 162.896 C 315.299 150.133 333.717 150.123 341.09 162.879 C 342.774 165.791 343.66 169.095 343.66 172.458 C 343.704 183.034 335.146 191.632 324.57 191.638 L 324.53 191.598 Z M 415.15 33.898 L 63.15 33.898 C 36.64 33.898 15.15 55.388 15.15 81.898 L 15.15 433.898 C 15.15 460.407 36.64 481.898 63.15 481.898 L 415.15 481.898 C 441.659 481.898 463.15 460.407 463.15 433.898 L 463.15 81.898 C 463.15 55.388 441.659 33.898 415.15 33.898 Z M 398.03 323.898 C 396.74 349.528 390.89 372.238 372.18 390.898 C 353.47 409.558 330.78 415.528 305.18 416.748 C 278.77 418.238 199.59 418.238 173.18 416.748 C 147.55 415.458 124.92 409.598 106.18 390.898 C 87.44 372.198 81.55 349.478 80.33 323.898 C 78.84 297.478 78.84 218.288 80.33 191.898 C 81.62 166.268 87.4 143.558 106.18 124.898 C 124.96 106.238 147.65 100.338 173.18 99.118 C 199.59 97.628 278.77 97.628 305.18 99.118 C 330.81 100.408 353.51 106.268 372.18 124.968 C 390.85 143.668 396.81 166.388 398.03 192.018 C 399.52 218.338 399.52 297.458 398.03 323.898 Z" style="fill: rgb(255, 255, 255);"/>
</svg>